<svg width="48" height="20" viewBox="0 0 48 20" fill="none" xmlns="http://www.w3.org/2000/svg">
    <path fill-rule="evenodd" clip-rule="evenodd" d="M32.6336 0.0213576C28.4271 -0.208635 22.4423 1.44733 16.9215 3.6171C11.3933 5.78983 6.25173 8.5095 3.72324 10.4645L3.94148 10.7388L3.72317 10.4645C1.50174 12.183 0.407352 13.868 0.0954862 15.3331C-0.218265 16.8071 0.268695 18.0364 1.15323 18.7636L1.15342 18.7638C2.43934 19.8195 3.84874 19.9756 5.2797 19.532C6.68532 19.0964 8.11157 18.0846 9.50426 16.8153L9.50455 16.815C9.62498 16.705 9.7819 16.5578 9.97303 16.3787L9.97311 16.3786L9.97312 16.3786C11.2801 15.1532 14.1865 12.4282 17.9599 9.8148C22.2917 6.8147 27.7144 3.99942 33.1169 3.7485C38.247 3.62923 43.2878 5.08247 47.5411 7.90689L48 7.38271C44.0255 3.08628 38.5285 0.452045 32.6401 0.0217765L32.6401 0.0217164L32.6336 0.0213576Z" fill="#000000"/>
  </svg>
