<svg xmlns="http://www.w3.org/2000/svg" fill-rule="evenodd" stroke-linejoin="round" stroke-miterlimit="2" clip-rule="evenodd" viewBox="0 0 32 32"><path fill-rule="nonzero" d="M0,7.792C-2.144,7.792 -3.896,6.04 -3.896,3.896C-3.896,1.752 -2.144,0 0,0C2.144,0 3.896,1.752 3.896,3.896C3.896,6.04 2.144,7.792 0,7.792M9.936,3.648C9.802,3.42 6.497,-1.991 0,-1.991C-6.497,-1.991 -9.802,3.42 -9.936,3.648C-10.021,3.801 -10.021,3.991 -9.936,4.144C-9.802,4.372 -6.497,9.783 0,9.783C6.497,9.783 9.802,4.372 9.936,4.144C10.021,3.991 10.021,3.801 9.936,3.648" transform="translate(16 12.104)"/></svg>