<svg xmlns="http://www.w3.org/2000/svg" width="435" height="597.316" viewBox="0 0 435 597.316">
  <g id="face_1_" data-name="face (1)" transform="translate(-15.25 -13)">
    <path id="Path_7" data-name="Path 7" d="M423.111,287.849c-48.3-55.187-41.812-108.685-41.812-108.685C368.314,37.367,238.463,18.539,232.75,17.76h0C227.036,18.539,96.666,37.5,84.2,179.164c0,0,6.363,53.628-41.812,108.815S228.595,312,232.75,311.482,470.9,342.646,423.111,287.849ZM450.25,477.431a349.818,349.818,0,0,1-435,0l9.739-34.54a118.424,118.424,0,0,1,114.139-84.4H326.372a118.424,118.424,0,0,1,114.139,84.4Z" transform="translate(0 57.049)" fill="#262234"/>
    <path id="Path_8" data-name="Path 8" d="M187.686,15.21c142.836,0,131.149,140.109,131.149,140.109,21.036-2.207,37.657,6.363,37.657,37.137s-12.985,37.137-29.346,38.955a3.636,3.636,0,0,0-3.376,3.506c-4.934,47.915-37.657,82.975-69.86,106.478a111.542,111.542,0,0,1-132.318,0c-32.2-23.5-64.925-58.693-69.86-106.478a3.636,3.636,0,0,0-3.376-3.506c-16.491-1.688-29.346-8.181-29.346-38.955S34.852,153.5,55.888,155.319C55.758,155.319,44.071,15.21,187.686,15.21Z" transform="translate(45.064 26.487)" fill="#ffd2b4"/>
    <path id="Path_9" data-name="Path 9" d="M320.173,132.463C313.68,43.385,234.082,13,170.845,13S28.009,43.385,21.516,132.463a146.991,146.991,0,0,0,1.3,44.409,410.594,410.594,0,0,0,5.194,47.266c2.337,10.128,13.894,9.739,15.452.649A289.826,289.826,0,0,1,76.183,115.842l10.388,34.93a12.985,12.985,0,0,0,12.985,9.219H243.3a12.985,12.985,0,0,0,12.985-9.219l10.388-34.8a289.956,289.956,0,0,1,32.592,108.685c1.428,9.09,12.985,9.479,15.452-.649a399.528,399.528,0,0,0,4.415-46.357A145.821,145.821,0,0,0,320.173,132.463Z" transform="translate(61.905)" fill="#262234"/>
    <path id="Path_10" data-name="Path 10" d="M131.881,39v74.794a25.97,25.97,0,0,1-14.413,23.373h0a83.884,83.884,0,0,1-75.054,0h0A25.97,25.97,0,0,1,28,113.794V39Z" transform="translate(152.809 311.612)" fill="#ffd2b4"/>
    <path id="Path_11" data-name="Path 11" d="M155.851,44v9.869a25.97,25.97,0,0,1-14.413,23.373,84.144,84.144,0,0,1-75.054,0A25.97,25.97,0,0,1,51.97,53.869V44H26v9.869a51.94,51.94,0,0,0,28.827,46.487,108.945,108.945,0,0,0,98.167,0,51.94,51.94,0,0,0,28.827-46.487V44Z" transform="translate(128.84 371.537)" fill="#fff" opacity="0.2"/>
    <path id="Path_12" data-name="Path 12" d="M131.881,41.08V60.558A118.943,118.943,0,0,1,28,60.558V41.08a118.943,118.943,0,0,0,103.881,0Z" transform="translate(152.81 336.541)" fill="#262234" opacity="0.1"/>
  </g>
</svg>
