<svg xmlns="http://www.w3.org/2000/svg" width="33.5" height="46" viewBox="0 0 33.5 46">
  <g id="face_1_" data-name="face (1)" transform="translate(-15.25 -13)">
    <path id="Path_7" data-name="Path 7" d="M46.66,38.56c-3.72-4.25-3.22-8.37-3.22-8.37-1-10.92-11-12.37-11.44-12.43h0c-.44.06-10.48,1.52-11.44,12.43,0,0,.49,4.13-3.22,8.38S31.68,40.42,32,40.38,50.34,42.78,46.66,38.56Zm2.09,14.6a26.94,26.94,0,0,1-33.5,0L16,50.5A9.12,9.12,0,0,1,24.79,44H39.21A9.12,9.12,0,0,1,48,50.5Z" fill="#262234"/>
    <path id="Path_8" data-name="Path 8" d="M32,15.21C43,15.21,42.1,26,42.1,26c1.62-.17,2.9.49,2.9,2.86s-1,2.86-2.26,3a.28.28,0,0,0-.26.27c-.38,3.69-2.9,6.39-5.38,8.2a8.59,8.59,0,0,1-10.19,0c-2.48-1.81-5-4.52-5.38-8.2a.28.28,0,0,0-.26-.27c-1.27-.13-2.26-.63-2.26-3s1.22-3,2.84-2.86C21.84,26,20.94,15.21,32,15.21Z" fill="#ffd2b4"/>
    <path id="Path_9" data-name="Path 9" d="M43.5,22.2C43,15.34,36.87,13,32,13s-11,2.34-11.5,9.2a11.32,11.32,0,0,0,.1,3.42,31.62,31.62,0,0,0,.4,3.64c.18.78,1.07.75,1.19.05a22.32,22.32,0,0,1,2.52-8.39l.8,2.69a1,1,0,0,0,1,.71H37.58a1,1,0,0,0,1-.71l.8-2.68a22.33,22.33,0,0,1,2.51,8.37c.11.7,1,.73,1.19-.05a30.769,30.769,0,0,0,.34-3.57A11.23,11.23,0,0,0,43.5,22.2Z" fill="#262234"/>
    <path id="Path_10" data-name="Path 10" d="M36,39v5.76a2,2,0,0,1-1.11,1.8h0a6.46,6.46,0,0,1-5.78,0h0A2,2,0,0,1,28,44.76V39Z" fill="#ffd2b4"/>
    <path id="Path_11" data-name="Path 11" d="M36,44v.76a2,2,0,0,1-1.11,1.8,6.48,6.48,0,0,1-5.78,0A2,2,0,0,1,28,44.76V44H26v.76a4,4,0,0,0,2.22,3.58,8.39,8.39,0,0,0,7.56,0A4,4,0,0,0,38,44.76V44Z" fill="#fff" opacity="0.2"/>
    <path id="Path_12" data-name="Path 12" d="M36,41.08v1.5a9.16,9.16,0,0,1-8,0v-1.5a9.16,9.16,0,0,0,8,0Z" fill="#262234" opacity="0.1"/>
  </g>
</svg>
