<svg xmlns="http://www.w3.org/2000/svg" width="32" height="32" viewBox="0 0 32 32"><g transform="translate(-229.5 -1436.362)"><path fill="#373449" d="m 249.57248,425.52219 -9.23802,-0.0207 m -0.33475,6.50047 0,5.49804 1,8 -5.99971,0 c 0,0 1.91332,-7.94575 2,-12 0.0575,-2.68777 -0.73713,-4.01286 -0.9847,-8.00483 -0.27348,-4.4098 4.07939,-8.20635 8.4892,-8.47983 4.4098,-0.27348 9.20675,3.07968 9.4802,7.48949 0.0211,0.34081 0.0204,0.68264 -0.002,1.02336 -0.0224,0.34039 -1.03952,5.29503 -0.98262,7.97181 0.0862,4.05426 1.99992,12 1.99992,12 l -6.00037,0 1,-8 -0.0124,-5.53125" transform="translate(1 1020.862)"/><path fill="#494561" d="m 245.5,417.5 c -4.40981,0.27348 -8.77348,4.0902 -8.5,8.5 0.24757,3.99197 1.0575,5.31223 1,8 -0.0867,4.05425 -2,12 -2,12 l 1.875,0 c 0.56986,-2.60786 1.64796,-7.15927 1.70803,-9.96875 0.0575,-2.6878 -0.45602,-4.0081 -0.70359,-8 -0.27348,-4.4098 3.617,-8.90236 8.02681,-9.17586 2.6981,-0.16728 5.54304,1.71657 7.40625,3.67586 -1.50258,-3.11853 -5.27704,-5.25051 -8.8125,-5.03125 z m -4.15625,8.5 9.21875,0.0312 z m 1.40625,2.03125 9.25,0.0312 z" transform="translate(0 1020.362)"/><path fill="none" stroke="#373449" stroke-linecap="round" stroke-linejoin="round" d="m 249.57248,425.52219 -9.23802,-0.0207 m -0.33475,6.50047 0,5.49804 1,8 -5.99971,0 c 0,0 1.91332,-7.94575 2,-12 0.0575,-2.68777 -0.73713,-4.01286 -0.9847,-8.00483 -0.27348,-4.4098 4.07939,-8.20635 8.4892,-8.47983 4.4098,-0.27348 9.20675,3.07968 9.4802,7.48949 0.0211,0.34081 0.0204,0.68264 -0.002,1.02336 -0.0224,0.34039 -1.03952,5.29503 -0.98262,7.97181 0.0862,4.05426 1.99992,12 1.99992,12 l -6.00037,0 1,-8 -0.0124,-5.53125" transform="translate(1 1020.862)"/><path fill="#ffe6a1" d="m 19.414527,9.5107967 c 1.082945,3.0512743 0.432108,6.9452933 -1.453683,8.6975333 -1.885791,1.752241 -4.292427,0.699166 -5.375371,-2.352109 -0.701681,-1.977037 -0.696975,-4.410052 0.01234,-6.3799436 z" transform="matrix(1.39683 0 0 1.09873 223.65 1435.927)"/><path fill="#fff4b2" d="m 241.25,425.96875 c -0.99079,2.16437 -1.01138,4.85902 -0.0312,7.03125 1.51268,3.35252 4.89713,4.48774 7.53125,2.5625 0.15259,-0.11152 0.29663,-0.21707 0.4375,-0.34375 -3.41992,0.66485 -5.04843,-1.15868 -6.10485,-3.5 -0.79584,-1.76385 -0.94138,-3.86619 -0.4375,-5.75 z" transform="translate(0 1020.362)"/><path fill="none" stroke="#373449" stroke-linecap="round" stroke-linejoin="round" stroke-width=".807" d="m 19.414527,9.5107967 c 1.082945,3.0512743 0.432108,6.9452933 -1.453683,8.6975333 -1.885791,1.752241 -4.292427,0.699166 -5.375371,-2.352109 -0.701681,-1.977037 -0.696975,-4.410052 0.01234,-6.3799436 z" transform="matrix(1.39683 0 0 1.09873 223.65 1435.927)"/><path fill="#ffe6a1" d="m 249,424.5625 -0.5,2.4375 1,0 z m -6,0.4375 -0.5,2 1,0 z m 2,0 -0.5,2 1,0 z m 2,1 -0.5,1 1,0 z" transform="translate(0 1020.362)"/></g></svg>