<svg xmlns="http://www.w3.org/2000/svg" viewBox="0 0 32 32"><path fill="#333" d="M31 19H20.032a.999.999 0 0 0-.748.335l-.869.978-2.848-7.655A1.006 1.006 0 0 0 14.63 12h-.001c-.418 0-.792.268-.937.66L11.356 19H1a1 1 0 0 0 0 2h11.054a1 1 0 0 0 .938-.654l1.642-4.455 2.487 6.682a.998.998 0 0 0 1.685.315L20.481 21H31a1 1 0 0 0 0-2z"/><path fill="#333" d="M23.637 2C20.951 2 17.631 4.393 16 7.022 14.369 4.393 11.049 2 8.363 2 2.97 2 0 5.551 0 12c0 2.209.539 4.036 1.648 5.583a1 1 0 101.625-1.165C2.405 15.205 2 13.802 2 12c0-5.383 2.081-8 6.363-8C11.163 4 15 7.841 15 10.021a1 1 0 002 0C17 7.841 20.837 4 23.637 4 27.919 4 30 6.617 30 12c0 1.802-.405 3.205-1.273 4.417a1 1 0 001.624 1.166C31.461 16.036 32 14.209 32 12c0-6.449-2.97-10-8.363-10zM21.139 22.194c-2.09 1.538-3.75 3.171-5.139 5.065-1.389-1.895-3.049-3.527-5.139-5.065a1 1 0 00-1.185 1.611c1.457 1.072 3.607 2.832 5.463 5.733.183.288.539.462.881.462s.659-.174.842-.461c1.855-2.901 4.006-4.661 5.463-5.733a1 1 0 00-1.186-1.612z"/></svg>