<svg xmlns="http://www.w3.org/2000/svg" xmlns:xlink="http://www.w3.org/1999/xlink" viewBox="0 0 64 64"><defs><linearGradient id="b" x1="11" x2="53" y1="31.89" y2="31.89" gradientUnits="userSpaceOnUse"><stop offset="0" stop-color="#f4b7a4"/><stop offset="1" stop-color="#f7907f"/></linearGradient><linearGradient id="a" x1="40.99" x2="40.99" y1="59.94" y2="53.51" gradientUnits="userSpaceOnUse"><stop offset="0" stop-color="#002237"/><stop offset="1" stop-color="#003352"/></linearGradient><linearGradient id="c" x1="23.02" x2="23.02" y1="59.95" y2="53.48" xlink:href="#a"/><linearGradient id="d" x1="32" x2="32" y1="3" y2="60.77" gradientUnits="userSpaceOnUse"><stop offset="0" stop-color="#000406"/><stop offset="1" stop-color="#001521"/></linearGradient></defs><g data-name="Layer 3"><path fill="url(#b)" d="M53,50.1c0,3.71-.64,7.49-5.3,9.95a6.57,6.57,0,0,1-6.29-.19,16,16,0,0,1-5.78-.53,7.09,7.09,0,0,1-7.24,0,15.89,15.89,0,0,1-5.8.54,6.49,6.49,0,0,1-6.29.19C11.64,57.59,11,53.81,11,50.1c0-4.55,3.79-10.22,7-14.17a13.81,13.81,0,0,0,3-8c0-2.39,0,4,0-13.92a11,11,0,0,1,22,0c0,16.4,0,11.05,0,13.92a13.62,13.62,0,0,0,1.87,6.3h0C46,36.27,53,43.76,53,50.1Z"/><path fill="url(#a)" d="M46.07,56.87c-.36.85-1.72,3.07-6,3.07a18,18,0,0,1-4.4-.61c3.24-1.61,6.5-4.71,9.52-5.82l.36.2C46.38,54.23,46.61,55.59,46.07,56.87Z"/><path fill="url(#c)" d="M28.4,59.33A18.31,18.31,0,0,1,24,60c-4.31,0-5.67-2.22-6-3.07-.54-1.29-.31-2.65.55-3.17h0a4.36,4.36,0,0,1,.42-.23C21.7,54.55,25.31,57.81,28.4,59.33Z"/></g><path fill="url(#d)" d="M32,3A11,11,0,0,0,21,14V27.34a13.73,13.73,0,0,1-3,8.59c-3.17,4-7,9.62-7,14.17,0,3.71.64,7.49,5.3,9.95a6.49,6.49,0,0,0,6.29-.19,15.89,15.89,0,0,0,5.8-.54,7.09,7.09,0,0,0,7.24,0,16,16,0,0,0,5.78.53,6.57,6.57,0,0,0,6.29.19c4.66-2.46,5.3-6.24,5.3-9.95,0-4.55-3.79-10.22-7-14.17a13.73,13.73,0,0,1-3-8.59V14A11,11,0,0,0,32,3ZM20.12,56.64a1.71,1.71,0,0,1-.47-1.29c1.91-1,3.8.89,6.16,2.45C22.06,58.34,20.6,57.22,20.12,56.64ZM38.2,57.81c.58-.39,1.16-.8,1.73-1.2.44-.2,2.51-2.29,4.42-1.26a1.71,1.71,0,0,1-.47,1.29C43.4,57.22,41.94,58.34,38.2,57.81ZM51,50.1c0,3.76-.69,6.31-4.24,8.18a4.31,4.31,0,0,1-2.28.48c2.29-1.61,2.3-4.29,1-5-1.78-1.06-3.71-.84-5.9.68S34.32,58.32,32,58.32c-2,0-4.52-1.77-7-3.48-.45-.21-3.36-3-6.54-1.13-1.28.77-1.26,3.44,1,5a4.31,4.31,0,0,1-2.28-.48C13.69,56.41,13,53.86,13,50.1c0-3.1,2.32-7.69,6.52-12.92a15.37,15.37,0,0,0,1.62-2.46c.34,4.6-.6,7.67,1.75,11.29a1,1,0,0,0,1.39.29,1,1,0,0,0,.29-1.38,8.14,8.14,0,0,1-1.31-4.25C23.07,25.14,23,40.3,23,14a9,9,0,0,1,18,0c-.11,21.34.22,2.6-.26,26.67a8.14,8.14,0,0,1-1.31,4.25,1,1,0,0,0,.29,1.38A1,1,0,0,0,41.11,46c2.37-3.66,1.41-6.65,1.75-11.29a15.37,15.37,0,0,0,1.62,2.46C48.68,42.41,51,47,51,50.1Z" data-name="Layer 4"/></svg>