<svg xmlns="http://www.w3.org/2000/svg" data-name="Layer 1" viewBox="0 0 32 32"><path fill="#f9bcac" d="M.62025,11.96952A7.8288,7.8288,0,0,1,4.16033,6.64992a9.394,9.394,0,0,1,5.734-1.468c2.00229.12684,3.63,1.475,5.60283,1.5892a7.42256,7.42256,0,0,0,2.773-.69495,11.56743,11.56743,0,0,1,9.76022,1.25564c3.333,2.08644,4.21115,5.101,2.85935,8.8053-2.05022,5.61824-7.29792,10.12964-13.30337,10.64507A16.89771,16.89771,0,0,1,2.13225,18.86863,9.96124,9.96124,0,0,1,.62025,11.96952Z"/><path fill="#fff" d="M6.003 6.67007h0a2.5 2.5 0 0 1 2.5 2.5v2.5a1 1 0 0 1-1 1h-2a2 2 0 0 1-2-2v-1.5a2.5 2.5 0 0 1 2.5-2.5zM11.003 6.67007h0a2.5 2.5 0 0 1 2.5 2.5v3.5a1 1 0 0 1-1 1h-2a2 2 0 0 1-2-2v-2.5a2.5 2.5 0 0 1 2.5-2.5zM16.003 6.67007h0a2.5 2.5 0 0 1 2.5 2.5v2.5a2 2 0 0 1-2 2h-1a2 2 0 0 1-2-2v-2.5a2.5 2.5 0 0 1 2.5-2.5zM21.003 6.67007h0a2.5 2.5 0 0 1 2.5 2.5v2.5a2 2 0 0 1-2 2h-2a1 1 0 0 1-1-1v-3.5a2.5 2.5 0 0 1 2.5-2.5zM26.003 6.67007h0a2.5 2.5 0 0 1 2.5 2.5v1.5a2 2 0 0 1-2 2h-2a1 1 0 0 1-1-1v-2.5a2.5 2.5 0 0 1 2.5-2.5zM8.003 18.67007h1a1 1 0 0 1 1 1v5a0 0 0 0 1 0 0h0a4 4 0 0 1-4-4v0A2 2 0 0 1 8.003 18.67007zM12.003 17.67007h1a1 1 0 0 1 1 1v6a0 0 0 0 1 0 0h-4a0 0 0 0 1 0 0v-5A2 2 0 0 1 12.003 17.67007zM18.003 24.67007h-4v-5a2 2 0 0 1 2-2h0a2 2 0 0 1 2 2zM19.003 17.67007h1a2 2 0 0 1 2 2v5a0 0 0 0 1 0 0h-4a0 0 0 0 1 0 0v-6A1 1 0 0 1 19.003 17.67007zM23.003 18.67007h1a2 2 0 0 1 2 2v0a4 4 0 0 1-4 4h0a0 0 0 0 1 0 0v-5a1 1 0 0 1 1-1z"/><path fill="#e5303e" d="M.625,13.33524c-.11312-.22853,2.78783-1.66189,3.14064-1.825a14.96916,14.96916,0,0,1,5.5449-1.3598c1.94686-.09389,3.77048.49,5.69772.53966,1.85393.04774,3.54136-.8431,5.3741-.86567a20.94251,20.94251,0,0,1,4.93594.53214,23.394,23.394,0,0,1,6.01674,2.234l.15442-.01015a6.57974,6.57974,0,0,0-3.45437-5.2488A11.56743,11.56743,0,0,0,18.2749,6.076a7.42256,7.42256,0,0,1-2.773.69495c-1.97283-.11416-3.60055-1.46236-5.60283-1.5892a9.394,9.394,0,0,0-5.734,1.468A7.8288,7.8288,0,0,0,.625,11.96931a8.48233,8.48233,0,0,0-.10429.89329Z"/><path fill="#e5303e" d="M31.333,12.59354c-.46.78-6.01,9.97-15.44,10.12-8.39.12-14.15-7.13-15.27-9.38l-.12244.15238A10.33375,10.33375,0,0,0,2.133,18.86356a16.91675,16.91675,0,0,0,15.46,7.92c6-.52,11.25-5.03,13.3-10.65a8.82211,8.82211,0,0,0,.59766-3.52114Z"/></svg>